Coordinates
version=1
nRows=8
nColumns=40
inDegrees=yes

Units are S.I. units (second, meters, Newtons, ...)
Angles are in degrees.

endheader
time	pelvis_tilt	pelvis_list	pelvis_rotation	pelvis_tx	pelvis_ty	pelvis_tz	hip_flexion_r	hip_adduction_r	hip_rotation_r	knee_angle_r	knee_angle_r_beta	ankle_angle_r	subtalar_angle_r	mtp_angle_r	hip_flexion_l	hip_adduction_l	hip_rotation_l	knee_angle_l	knee_angle_l_beta	ankle_angle_l	subtalar_angle_l	mtp_angle_l	lumbar_extension	lumbar_bending	lumbar_rotation	arm_flex_r	arm_add_r	arm_rot_r	elbow_flex_r	pro_sup_r	wrist_flex_r	wrist_dev_r	arm_flex_l	arm_add_l	arm_rot_l	elbow_flex_l	pro_sup_l	wrist_flex_l	wrist_dev_l
     47.07342857	     -2.85237228	     -5.10538424	      0.94746811	      1.06851836	      0.93692703	      0.39864856	     30.53667257	     -5.75586230	     -4.86806109	     50.76334236	     50.76334236	      0.90922389	    -10.19797681	     -2.29329985	     12.10141281	     -6.32718284	    -10.44851287	     19.74004646	     19.74004646	     12.66332604	     -7.76573014	     -1.67098697	    -11.27317104	      3.86249200	      0.41941566	     -6.84909037	    -13.40937936	     -0.36144826	     31.55873070	     46.28719269	      0.00000000	      0.00000000	     17.91447310	    -18.56938393	     -4.60675215	     47.26539504	     46.24736308	      0.00000000	      0.00000000
     47.08685714	     -3.09475462	     -5.13783573	      0.41476153	      1.06774256	      0.93696675	      0.39919668	     30.64904719	     -5.48352600	     -5.03964964	     46.86702205	     46.86702205	      1.07922359	     -9.37414110	     -1.95239792	     11.70949004	     -6.38185634	    -10.82050075	     19.29888923	     19.29888923	     12.79946713	     -7.84903054	     -1.66722252	    -11.14589689	      3.85097162	      0.29400424	     -7.70466530	    -13.32386392	     -0.38625284	     31.26698734	     46.29150159	      0.00000000	      0.00000000	     18.18505200	    -18.90885889	     -4.69621640	     47.48986008	     46.26475188	      0.00000000	      0.00000000
     47.10028571	     -3.22683526	     -5.14760709	     -0.08809622	      1.06704340	      0.93707323	      0.39976170	     30.40606193	     -5.24171726	     -5.39507480	     42.55296669	     42.55296669	      1.18561485	     -8.26141348	     -1.66302256	     11.16974276	     -6.40323994	    -11.20448132	     18.80547746	     18.80547746	     12.88470784	     -7.91238918	     -1.69766823	    -11.17300942	      3.84842774	      0.28481201	     -8.49641798	    -13.31998943	     -0.45533155	     31.04801194	     46.29583370	      0.00000000	      0.00000000	     18.46549612	    -19.11745364	     -4.79563402	     47.89339257	     46.28556649	      0.00000000	      0.00000000
     47.11371429	     -3.41149143	     -5.12767048	     -0.58871038	      1.06634939	      0.93693713	      0.40043522	     30.04913434	     -4.99267240	     -5.84904884	     37.94746614	     37.94746614	      1.20060325	     -6.86602289	     -1.36850951	     10.72206054	     -6.39856015	    -11.57891692	     18.37830904	     18.37830904	     12.98302389	     -8.00434924	     -1.81504193	    -11.15027370	      3.77705459	      0.29963761	     -9.22201223	    -13.31270081	     -0.56009203	     30.92457769	     46.29894231	      0.00000000	      0.00000000	     18.70246155	    -19.29641017	     -4.91643096	     48.38548589	     46.30892280	      0.00000000	      0.00000000
     47.12714286	     -3.61193728	     -5.09476061	     -1.03073136	      1.06570951	      0.93659873	      0.40111888	     29.51473887	     -4.72208100	     -6.43054292	     33.11549809	     33.11549809	      1.14363718	     -5.18708424	     -0.98784502	     10.34146357	     -6.38213132	    -11.90565117	     18.03183794	     18.03183794	     13.09190792	     -8.10485317	     -2.01119497	    -11.10027952	      3.73912523	      0.30995913	     -9.86346078	    -13.33437580	     -0.70152052	     30.88269817	     46.30175527	      0.00000000	      0.00000000	     18.89168363	    -19.41468462	     -5.04497777	     48.93835736	     46.33314192	      0.00000000	      0.00000000
     47.14057143	     -3.82438148	     -5.05339276	     -1.41401968	      1.06514296	      0.93606513	      0.40187921	     28.83814541	     -4.41868997	     -7.12783865	     28.19987054	     28.19987054	      1.01070752	     -3.19120024	     -0.43084637	     10.01776284	     -6.36732986	    -12.18318973	     17.76092732	     17.76092732	     13.21164234	     -8.19986780	     -2.26955429	    -11.01966689	      3.71296306	      0.32491981	    -10.40880283	    -13.35572441	     -0.86749133	     30.91087684	     46.30409142	      0.00000000	      0.00000000	     19.03906297	    -19.47885407	     -5.17593412	     49.52201309	     46.35737882	      0.00000000	      0.00000000
     47.15400000	     -3.85936621	     -4.90536421	     -1.77319603	      1.06482520	      0.93555785	      0.40262173	     27.90783313	     -4.26213867	     -8.15527864	     23.49456839	     23.49456839	      0.87926881	     -0.42257406	      0.24697201	      9.48988757	     -6.23439124	    -12.51417703	     17.48873288	     17.48873288	     13.25717191	     -8.26310093	     -2.84419569	    -11.16346956	      3.55177000	      0.36709453	    -10.94599646	    -13.40463034	     -1.30581968	     31.21488205	     46.30900389	      0.00000000	      0.00000000	     19.08317878	    -19.49590461	     -5.46662181	     50.54667143	     46.40582953	      0.00000000	      0.00000000
     47.16742857	     -4.04145808	     -4.78626396	     -2.06192947	      1.06455986	      0.93467700	      0.40347321	     27.23945106	     -4.00670470	     -9.09293614	     19.39839028	     19.39839028	      1.25635753	      2.18037772	      2.98222774	      9.14225168	     -6.11442387	    -12.65242150	     17.18876723	     17.18876723	     12.97515841	     -8.67516708	     -4.10083545	    -11.09439462	      3.46419787	      0.25781157	    -11.42242784	    -13.33230062	     -2.70636081	     31.82197623	     46.33377859	      0.00000000	      0.00000000	     18.80010743	    -19.43988723	     -6.10580226	     51.87373259	     46.52570323	      0.00000000	      0.00000000
